<?xml version="1.0" encoding="UTF-8"?>
<svg xmlns="http://www.w3.org/2000/svg" xmlns:xlink="http://www.w3.org/1999/xlink" viewBox="0 0 14 14" width="14px" height="14px">
<g id="surface15908364">
<path style=" stroke:none;fill-rule:nonzero;fill:rgb(23.137255%,81.176472%,57.647061%);fill-opacity:1;" d="M 11.742188 2.414062 C 11.554688 2.421875 11.386719 2.519531 11.289062 2.675781 L 6.019531 10.734375 L 2.609375 7.789062 C 2.460938 7.636719 2.242188 7.578125 2.039062 7.640625 C 1.835938 7.703125 1.6875 7.875 1.652344 8.082031 C 1.617188 8.292969 1.703125 8.5 1.871094 8.628906 L 5.773438 12.003906 C 5.898438 12.109375 6.058594 12.15625 6.21875 12.132812 C 6.378906 12.109375 6.519531 12.015625 6.605469 11.882812 L 12.234375 3.289062 C 12.351562 3.113281 12.363281 2.886719 12.257812 2.699219 C 12.15625 2.515625 11.953125 2.40625 11.742188 2.414062 Z M 11.742188 2.414062 "/>
</g>
</svg>
