<svg viewBox="0 0 40 40" fill="black" xmlns="http://www.w3.org/2000/svg" width="40px" height="40px">
<path fill-rule="evenodd" clip-rule="evenodd" d="M14.0664 8.1167C10.8517 8.1167 10.4483 8.13083 9.18565 8.18861C7.92552 8.24664 7.06537 8.44726 6.31274 8.74162C5.53422 9.04565 4.87382 9.45235 4.21588 10.1142C3.55745 10.7758 3.15303 11.4399 2.84971 12.2226C2.55625 12.9797 2.3565 13.8449 2.29978 15.1116C2.24331 16.3813 2.22852 16.7872 2.22852 20.02C2.22852 23.2527 2.24282 23.6572 2.30003 24.9268C2.35798 26.194 2.55748 27.059 2.84995 27.8159C3.15253 28.5988 3.55696 29.2629 4.21514 29.9245C4.87283 30.5866 5.53323 30.9943 6.31126 31.2983C7.06438 31.5927 7.92478 31.7933 9.18467 31.8513C10.4473 31.9091 10.8505 31.9232 14.0649 31.9232C17.2799 31.9232 17.6821 31.9091 18.9447 31.8513C20.2048 31.7933 21.066 31.5927 21.8191 31.2983C22.5973 30.9943 23.2568 30.5866 23.9144 29.9245C24.5729 29.2629 24.9773 28.5988 25.2806 27.8161C25.5716 27.059 25.7714 26.1938 25.8305 24.9271C25.8873 23.6574 25.9021 23.2527 25.9021 20.02C25.9021 16.7872 25.8873 16.3815 25.8305 15.1119C25.7714 13.8447 25.5716 12.9797 25.2806 12.2228C24.9773 11.4399 24.5729 10.7758 23.9144 10.1142C23.256 9.4521 22.5976 9.0454 21.8183 8.74162C21.0637 8.44726 20.2031 8.24664 18.943 8.18861C17.6804 8.13083 17.2784 8.1167 14.0627 8.1167H14.0664ZM13.6718 10.2616H13.6719L14.0664 10.2617C17.2269 10.2617 17.6015 10.2731 18.8495 10.3302C20.0036 10.3832 20.63 10.5772 21.0473 10.7401C21.5996 10.9558 21.9935 11.2137 22.4075 11.6304C22.8218 12.047 23.0783 12.4437 23.2933 12.9992C23.4553 13.4183 23.6484 14.0482 23.7009 15.2088C23.7577 16.4636 23.77 16.8405 23.77 20.0172C23.77 23.1939 23.7577 23.5708 23.7009 24.8256C23.6482 25.9862 23.4553 26.6161 23.2933 27.0352C23.0788 27.5907 22.8218 27.9862 22.4075 28.4026C21.9932 28.8192 21.5999 29.0771 21.0473 29.2928C20.6305 29.4565 20.0036 29.6499 18.8495 29.703C17.6017 29.76 17.2269 29.7724 14.0664 29.7724C10.9058 29.7724 10.5312 29.76 9.28336 29.703C8.12926 29.6494 7.50289 29.4555 7.08539 29.2926C6.533 29.0768 6.13844 28.8189 5.72415 28.4023C5.30986 27.9857 5.05339 27.5899 4.83835 27.0342C4.67634 26.6151 4.48325 25.9852 4.43072 24.8246C4.374 23.5698 4.36266 23.1929 4.36266 20.0142C4.36266 16.8356 4.374 16.4606 4.43072 15.2058C4.48349 14.0452 4.67634 13.4153 4.83835 12.9958C5.0529 12.4403 5.30986 12.0435 5.72415 11.6269C6.13844 11.2103 6.533 10.9524 7.08539 10.7361C7.50264 10.5725 8.12926 10.379 9.28336 10.3257C10.3753 10.2761 10.7985 10.2612 13.0046 10.2587V10.2617C13.2107 10.2614 13.4324 10.2615 13.6717 10.2616H13.6718H13.6718ZM18.9644 13.6661C18.9644 12.8773 19.6006 12.2383 20.3848 12.2383V12.2378C21.169 12.2378 21.8052 12.8776 21.8052 13.6661C21.8052 14.4547 21.169 15.0945 20.3848 15.0945C19.6006 15.0945 18.9644 14.4547 18.9644 13.6661ZM14.0662 13.9071C10.7093 13.9072 7.9877 16.6442 7.9877 20.0199C7.9877 23.3957 10.7094 26.1315 14.0664 26.1315C17.4234 26.1315 20.1442 23.3957 20.1442 20.0199C20.1442 16.6441 17.4232 13.9071 14.0662 13.9071ZM18.012 20.02C18.012 17.8286 16.2453 16.0523 14.0664 16.0523C11.8871 16.0523 10.1207 17.8286 10.1207 20.02C10.1207 22.2112 11.8871 23.9878 14.0664 23.9878C16.2453 23.9878 18.012 22.2112 18.012 20.02Z"/>
</svg>
