<svg width="82" height="18" viewBox="0 0 82 18" fill="none" xmlns="http://www.w3.org/2000/svg">
<path fill-rule="evenodd" clip-rule="evenodd" d="M5.98861 1.16609L7.2224 0.232163C9.64566 1.40755 11.3297 3.20798 12.4012 4.69156C12.9388 5.43594 13.3285 6.10909 13.5852 6.59942C13.7137 6.84489 13.8093 7.04541 13.8739 7.18724C13.9062 7.25818 13.9308 7.31451 13.9479 7.35453C13.9564 7.37455 13.9631 7.39049 13.9679 7.40215C13.9703 7.40798 13.9722 7.41273 13.9737 7.4164C13.9745 7.41823 13.9751 7.41978 13.9756 7.42106L13.9763 7.42277L13.9766 7.42347C13.9767 7.42378 13.9768 7.42407 13.1706 7.74622L13.9768 7.42407L14.1493 7.85497L13.8862 8.23747C12.8248 9.78065 11.2766 10.7611 10.0469 11.3496C9.4252 11.6471 8.86682 11.8531 8.46186 11.9853C8.43316 11.9947 8.4052 12.0037 8.37803 12.0123C8.32806 12.9129 8.25947 13.6581 8.1974 14.2156C8.15668 14.5814 8.11875 14.8666 8.09067 15.0623C8.07662 15.1602 8.06505 15.2356 8.05681 15.2876C8.05269 15.3136 8.04941 15.3337 8.04708 15.3478C8.04591 15.3549 8.04498 15.3604 8.0443 15.3644L8.04347 15.3693L8.0431 15.3715C8.04306 15.3717 8.04302 15.3719 7.18741 15.2245C6.3318 15.077 6.33178 15.0772 6.33175 15.0773L6.33209 15.0754C6.33244 15.0733 6.33304 15.0697 6.33388 15.0646C6.33556 15.0545 6.33819 15.0384 6.34166 15.0165C6.34861 14.9726 6.35893 14.9055 6.37174 14.8162C6.39736 14.6377 6.43295 14.3706 6.47154 14.0239C6.54873 13.3305 6.63782 12.3197 6.68319 11.0631C6.77399 8.54813 6.68928 5.05908 5.98861 1.16609ZM8.44371 10.1513C8.7004 10.0531 8.98983 9.93186 9.29679 9.78495C10.2686 9.31986 11.3602 8.62437 12.1663 7.63904C12.1312 7.56796 12.0912 7.48919 12.0464 7.40359C11.821 6.97294 11.4738 6.37256 10.993 5.70679C10.2825 4.72306 9.29348 3.61496 7.99015 2.69546C8.38342 5.52779 8.47594 8.08781 8.44371 10.1513Z" fill="#0F0C09"/>
<path fill-rule="evenodd" clip-rule="evenodd" d="M1.23369 5.04633C1.81485 4.2992 2.46461 3.3211 2.83867 2.31832L4.50575 2.46185C5.0538 5.39278 5.1408 8.05415 5.09144 9.98219C5.06673 10.9473 5.00778 11.7316 4.95455 12.2777C4.92792 12.5508 4.90271 12.7646 4.88387 12.9118C4.87446 12.9854 4.86663 13.0425 4.86102 13.082C4.85822 13.1017 4.85596 13.1171 4.85434 13.128C4.85353 13.1335 4.85288 13.1378 4.85239 13.141L4.85179 13.1449L4.85151 13.1468C4.85148 13.147 4.85145 13.1472 3.99347 13.0142C3.13549 12.8812 3.13547 12.8813 3.13545 12.8815L3.1359 12.8785C3.1361 12.8771 3.13637 12.8753 3.1367 12.8731C3.13777 12.8659 3.13947 12.8544 3.14173 12.8384C3.14625 12.8066 3.153 12.7575 3.16138 12.692C3.17813 12.561 3.20137 12.3645 3.22622 12.1096C3.27593 11.5997 3.33198 10.857 3.3555 9.93795C3.38768 8.68097 3.35887 7.09974 3.17157 5.33703C2.97812 5.6186 2.78566 5.87835 2.60481 6.11085C2.2865 6.52006 1.99565 6.85565 1.78327 7.09009C1.67693 7.20749 1.58983 7.3 1.52828 7.36419C1.4975 7.3963 1.47306 7.42137 1.45577 7.43896C1.44712 7.44776 1.44025 7.45469 1.43527 7.45971C1.43277 7.46222 1.43075 7.46424 1.4292 7.46579L1.42725 7.46774L1.42627 7.46872C1.42615 7.46884 1.42603 7.46895 0.813633 6.85407C0.201236 6.23918 0.201137 6.23928 0.201045 6.23937L0.200972 6.23945C0.201359 6.23906 0.202219 6.2382 0.203539 6.23687C0.206178 6.23422 0.210655 6.2297 0.216875 6.22337C0.229317 6.21072 0.248715 6.19083 0.274307 6.16414C0.325514 6.11073 0.401368 6.03022 0.495792 5.92599C0.684951 5.71717 0.946905 5.41502 1.23369 5.04633Z" fill="#0F0C09"/>
<path fill-rule="evenodd" clip-rule="evenodd" d="M6.37164 15.0667C7.77491 14.7992 9.62822 14.3052 11.4594 13.4031L12.2273 14.9591C10.2142 15.9508 8.20007 16.4843 6.69703 16.7709C5.94338 16.9146 5.31269 16.9972 4.86741 17.0441C4.64464 17.0675 4.46788 17.082 4.34489 17.0908C4.28339 17.0952 4.23529 17.0981 4.20158 17.1C4.18472 17.1009 4.17145 17.1016 4.1619 17.1021C4.15712 17.1023 4.15327 17.1025 4.15037 17.1026L4.14671 17.1028L4.14491 17.1028C4.14469 17.1029 4.14449 17.1029 4.10856 16.2362C4.07264 15.3695 4.07246 15.3695 4.0723 15.3695L4.07183 15.3695C4.07183 15.3695 4.072 15.3695 4.07243 15.3695C4.07329 15.3694 4.07508 15.3693 4.07778 15.3692C4.08318 15.369 4.09223 15.3685 4.10481 15.3678C4.12996 15.3664 4.1692 15.364 4.22159 15.3603C4.32638 15.3528 4.48359 15.34 4.68561 15.3187C5.08993 15.2762 5.67214 15.2001 6.37164 15.0667Z" fill="#0F0C09"/>
<path d="M22.841 14.8011H20.8643V2.31763H22.841V14.8011Z" fill="#0F0C09"/>
<path d="M28.5439 14.9637C27.2911 14.9637 26.2743 14.5709 25.4933 13.7852C24.7178 12.9942 24.33 11.943 24.33 10.6318V10.388C24.33 9.51027 24.4981 8.72734 24.8344 8.03923C25.1761 7.34571 25.6533 6.8066 26.2661 6.4219C26.8789 6.03721 27.5623 5.84487 28.3161 5.84487C29.5146 5.84487 30.4393 6.22685 31.0901 6.99081C31.7463 7.75478 32.0744 8.83571 32.0744 10.2336V11.0301H26.3231C26.3827 11.7561 26.6241 12.3304 27.0471 12.7531C27.4755 13.1757 28.0124 13.387 28.6578 13.387C29.5634 13.387 30.301 13.0213 30.8704 12.2898L31.9361 13.3057C31.5836 13.8313 31.1118 14.2404 30.5206 14.5329C29.9349 14.8201 29.276 14.9637 28.5439 14.9637ZM28.308 7.42969C27.7656 7.42969 27.3264 7.61932 26.9901 7.9986C26.6593 8.37787 26.4478 8.90614 26.3556 9.58342H30.122V9.43713C30.0787 8.77611 29.9024 8.27763 29.5933 7.94171C29.2842 7.60036 28.8557 7.42969 28.308 7.42969Z" fill="#0F0C09"/>
<path d="M38.5419 14.8011C38.4552 14.6332 38.3792 14.3596 38.3142 13.9803C37.6851 14.6359 36.915 14.9637 36.0039 14.9637C35.1199 14.9637 34.3986 14.7117 33.84 14.2078C33.2814 13.7039 33.0021 13.0809 33.0021 12.3386C33.0021 11.4012 33.3492 10.6833 34.0434 10.1848C34.743 9.68094 35.7408 9.429 37.037 9.429H38.2491V8.85196C38.2491 8.39683 38.1216 8.03382 37.8667 7.76291C37.6118 7.48658 37.2241 7.34841 36.7035 7.34841C36.2533 7.34841 35.8845 7.4622 35.5971 7.68976C35.3097 7.91191 35.166 8.19636 35.166 8.54313H33.1892C33.1892 8.06091 33.3492 7.6112 33.6692 7.194C33.9891 6.77138 34.423 6.44087 34.9707 6.20247C35.5239 5.96407 36.1394 5.84487 36.8173 5.84487C37.8478 5.84487 38.6694 6.10494 39.2822 6.62509C39.895 7.13981 40.2096 7.86585 40.2258 8.8032V12.7693C40.2258 13.5604 40.337 14.1916 40.5594 14.663V14.8011H38.5419ZM36.3699 13.3789C36.7604 13.3789 37.1265 13.284 37.4681 13.0944C37.8152 12.9048 38.0755 12.6501 38.2491 12.3304V10.6725H37.1834C36.4513 10.6725 35.9008 10.7998 35.532 11.0545C35.1633 11.3091 34.9789 11.6694 34.9789 12.1354C34.9789 12.5147 35.1036 12.8181 35.3531 13.0456C35.608 13.2678 35.9469 13.3789 36.3699 13.3789Z" fill="#0F0C09"/>
<path d="M41.5928 10.3393C41.5928 8.98471 41.9074 7.89836 42.5365 7.08021C43.1656 6.25665 44.0089 5.84487 45.0664 5.84487C45.9992 5.84487 46.753 6.16996 47.3279 6.82014V2.31763H49.3047V14.8011H47.515L47.4174 13.8909C46.8262 14.6061 46.0372 14.9637 45.0501 14.9637C44.0197 14.9637 43.1845 14.5492 42.5446 13.7202C41.9101 12.8912 41.5928 11.7642 41.5928 10.3393ZM43.5696 10.5099C43.5696 11.4039 43.7404 12.1029 44.0821 12.6068C44.4292 13.1052 44.92 13.3545 45.5545 13.3545C46.3626 13.3545 46.9537 12.9942 47.3279 12.2735V8.51874C46.9645 7.81438 46.3788 7.4622 45.5708 7.4622C44.9308 7.4622 44.4373 7.71685 44.0902 8.22616C43.7431 8.73005 43.5696 9.49131 43.5696 10.5099Z" fill="#0F0C09"/>
<path d="M58.7577 10.4937C58.7577 11.8591 58.4513 12.9454 57.8384 13.7527C57.231 14.56 56.3931 14.9637 55.3248 14.9637C54.2944 14.9637 53.4917 14.5925 52.9169 13.8502L52.8192 14.8011H51.0296V2.31763H53.0063V6.85265C53.5758 6.1808 54.3432 5.84487 55.3085 5.84487C56.3823 5.84487 57.2256 6.2431 57.8384 7.03958C58.4513 7.83605 58.7577 8.94949 58.7577 10.3799V10.4937ZM56.7809 10.323C56.7809 9.3694 56.6128 8.6542 56.2765 8.1774C55.9403 7.7006 55.4522 7.4622 54.8123 7.4622C53.9554 7.4622 53.3534 7.83605 53.0063 8.58376V12.2085C53.3588 12.9725 53.9663 13.3545 54.8285 13.3545C55.4468 13.3545 55.924 13.1242 56.2603 12.6637C56.5965 12.2031 56.7701 11.5069 56.7809 10.5749V10.323Z" fill="#0F0C09"/>
<path d="M59.7179 10.323C59.7179 9.46151 59.8887 8.68671 60.2304 7.9986C60.5721 7.30507 61.052 6.77409 61.6703 6.40565C62.2885 6.0318 62.999 5.84487 63.8016 5.84487C64.9893 5.84487 65.9519 6.22685 66.6895 6.99081C67.4325 7.75478 67.8338 8.76798 67.8934 10.0304L67.9016 10.4937C67.9016 11.3606 67.7334 12.1354 67.3972 12.8181C67.0664 13.5008 66.5891 14.029 65.9655 14.4029C65.3472 14.7768 64.6314 14.9637 63.8179 14.9637C62.576 14.9637 61.5808 14.5519 60.8324 13.7283C60.0894 12.8993 59.7179 11.7967 59.7179 10.4205V10.323ZM61.6947 10.4937C61.6947 11.3985 61.8818 12.1083 62.256 12.623C62.6302 13.1323 63.1508 13.387 63.8179 13.387C64.4849 13.387 65.0028 13.1269 65.3716 12.6068C65.7458 12.0866 65.9329 11.3254 65.9329 10.323C65.9329 9.43442 65.7404 8.73005 65.3554 8.20991C64.9757 7.68976 64.4578 7.42969 63.8016 7.42969C63.1562 7.42969 62.6437 7.68705 62.2641 8.20178C61.8845 8.71109 61.6947 9.47505 61.6947 10.4937Z" fill="#0F0C09"/>
<path d="M74.4993 14.8011C74.4125 14.6332 74.3366 14.3596 74.2715 13.9803C73.6424 14.6359 72.8723 14.9637 71.9612 14.9637C71.0772 14.9637 70.3559 14.7117 69.7973 14.2078C69.2387 13.7039 68.9594 13.0809 68.9594 12.3386C68.9594 11.4012 69.3065 10.6833 70.0007 10.1848C70.7003 9.68094 71.6982 9.429 72.9943 9.429H74.2064V8.85196C74.2064 8.39683 74.079 8.03382 73.8241 7.76291C73.5692 7.48658 73.1814 7.34841 72.6608 7.34841C72.2107 7.34841 71.8419 7.4622 71.5544 7.68976C71.267 7.91191 71.1233 8.19636 71.1233 8.54313H69.1465C69.1465 8.06091 69.3065 7.6112 69.6265 7.194C69.9465 6.77138 70.3803 6.44087 70.9281 6.20247C71.4812 5.96407 72.0968 5.84487 72.7747 5.84487C73.8051 5.84487 74.6267 6.10494 75.2395 6.62509C75.8524 7.13981 76.1669 7.86585 76.1832 8.8032V12.7693C76.1832 13.5604 76.2943 14.1916 76.5167 14.663V14.8011H74.4993ZM72.3273 13.3789C72.7177 13.3789 73.0838 13.284 73.4255 13.0944C73.7725 12.9048 74.0329 12.6501 74.2064 12.3304V10.6725H73.1407C72.4086 10.6725 71.8581 10.7998 71.4894 11.0545C71.1206 11.3091 70.9362 11.6694 70.9362 12.1354C70.9362 12.5147 71.0609 12.8181 71.3104 13.0456C71.5653 13.2678 71.9042 13.3789 72.3273 13.3789Z" fill="#0F0C09"/>
<path d="M80.3973 3.86994V6.00741H81.9511V7.47032H80.3973V12.3792C80.3973 12.7151 80.4624 12.9589 80.5926 13.1107C80.7282 13.2569 80.9668 13.3301 81.3084 13.3301C81.5362 13.3301 81.7667 13.303 81.9999 13.2488V14.7768C81.5498 14.9014 81.1159 14.9637 80.6983 14.9637C79.1798 14.9637 78.4206 14.1266 78.4206 12.4523V7.47032H76.9726V6.00741H78.4206V3.86994H80.3973Z" fill="#0F0C09"/>
</svg>
