<svg viewBox="4 0 28 40" xmlns="http://www.w3.org/2000/svg" width="40px" height="40px">
<path  d="M25.4263 14.0157C25.6001 13.4302 25.4263 13 24.5992 13H21.8642C21.1688 13 20.8482 13.3716 20.6743 13.7815C20.6743 13.7815 19.2835 17.2065 17.3132 19.4313C16.6757 20.0753 16.3859 20.2802 16.0382 20.2802C15.8644 20.2802 15.6127 20.0753 15.6127 19.4899V14.0157C15.6127 13.3131 15.4109 13 14.8313 13H10.5335C10.0989 13 9.83753 13.3261 9.83753 13.6351C9.83753 14.3012 10.8226 14.4548 10.9242 16.3283V20.3973C10.9242 21.2895 10.7647 21.4512 10.417 21.4512C9.48982 21.4512 7.23445 18.0109 5.8968 14.0742C5.63466 13.3091 5.37173 13 4.67274 13H1.93773C1.1563 13 1 13.3716 1 13.7815C1 14.5133 1.92723 18.1433 5.31733 22.9441C7.57738 26.2228 10.7617 28 13.6592 28C15.3977 28 15.6128 27.6053 15.6128 26.9253V24.4474C15.6128 23.6579 15.7775 23.5003 16.328 23.5003C16.7336 23.5003 17.4291 23.7052 19.0517 25.286C20.9061 27.1595 21.2119 28 22.2549 28H24.99C25.7714 28 26.1621 27.6053 25.9367 26.8263C25.69 26.0499 24.8047 24.9234 23.6298 23.5881C22.9923 22.827 22.0362 22.0074 21.7464 21.5975C21.3408 21.0706 21.4567 20.8364 21.7464 20.3681C21.7464 20.3681 25.0786 15.6257 25.4263 14.0157Z"/>
</svg>
