<svg viewBox="0 0 40 40"  xmlns="http://www.w3.org/2000/svg" width="40px" height="40px">
<path  d="M19.5472 22.1062C19.2622 21.9636 17.8609 21.2742 17.5996 21.1792C17.3384 21.0841 17.1484 21.0366 16.9584 21.3218C16.7684 21.607 16.2222 22.2488 16.0559 22.439C15.8897 22.6291 15.7234 22.6529 15.4384 22.5103C15.1534 22.3677 14.235 22.0668 13.1464 21.0961C12.2991 20.3406 11.7271 19.4075 11.5608 19.1222C11.3946 18.837 11.5431 18.6828 11.6859 18.5408C11.814 18.4131 11.9708 18.208 12.1133 18.0416C12.2558 17.8752 12.3034 17.7564 12.3984 17.5662C12.4934 17.3761 12.4459 17.2097 12.3746 17.0671C12.3034 16.9244 11.7334 15.522 11.4959 14.9515C11.2645 14.396 11.0295 14.4711 10.8546 14.4624C10.6885 14.4542 10.4983 14.4524 10.3083 14.4524C10.1183 14.4524 9.80957 14.5237 9.54828 14.8089C9.28704 15.0942 8.55076 15.7835 8.55076 17.1859C8.55076 18.5883 9.57206 19.9432 9.71456 20.1333C9.85707 20.3235 11.7243 23.2014 14.5834 24.4356C15.2634 24.7292 15.7943 24.9044 16.2082 25.0358C16.891 25.2526 17.5123 25.2221 18.0034 25.1487C18.551 25.0669 19.6897 24.4594 19.9272 23.7938C20.1647 23.1283 20.1647 22.5578 20.0934 22.439C20.0222 22.3201 19.8322 22.2488 19.5472 22.1062M14.3468 29.2045H14.3429C12.6417 29.2038 10.9731 28.747 9.51748 27.8834L9.17127 27.678L5.58299 28.619L6.54078 25.1216L6.31532 24.763C5.3663 23.254 4.86508 21.5098 4.86579 19.719C4.86787 14.4933 9.12097 10.2419 14.3505 10.2419C16.8828 10.2429 19.2633 11.23 21.0533 13.0214C22.8433 14.8129 23.8285 17.1942 23.8275 19.7267C23.8254 24.9528 19.5723 29.2045 14.3468 29.2045M22.4156 11.6602C20.262 9.50478 17.398 8.3172 14.3466 8.31599C8.05945 8.31599 2.94242 13.4311 2.9399 19.7183C2.93908 21.7281 3.4643 23.6899 4.46247 25.4191L2.84424 31.3281L8.89112 29.7425C10.5572 30.6509 12.433 31.1296 14.3421 31.1304H14.3467H14.3468C20.6334 31.1304 25.7509 26.0147 25.7534 19.7274C25.7546 16.6805 24.5693 13.8155 22.4156 11.6602"/>
</svg>
